# xmcd CD database file
# Copyright (C) 1993-1998 Ti Kan
#
# Track frame offsets:
#	150
#	9915
#	24840
#	42947
#	71360
#	88012
#	98580
#	108080
#	133885
#	154480
#	173022
#	188535
#	217267
#
# Disc length: 3108 seconds
#
# Revision: 1
# Processed by: cddbd v1.4b41PL1 Copyright (c) Steve Scherf et al.
# Submitted via: CDValet v3.31 - Copyright (c) 1997 Greg Leichner
#
DISCID=9f0c220d
DTITLE=THE TOP JIMMY LINEUP - Long Distance Call
DYEAR=1900
DGENRE=
TTITLE0=Some Nerve
TTITLE1=Blood Stains On The Wall
TTITLE2=Mean 'Ol World
TTITLE3=Muddy Bottom Blues
TTITLE4=Mister Airplane Man
TTITLE5=Tell Me
TTITLE6=Don't Start Crying Now
TTITLE7=You Can't Loose What You Never Had
TTITLE8=TV Mama
TTITLE9=Riding In The Moonlight
TTITLE10=Rib-Eye Shuffle
TTITLE11=Long Distance Call
TTITLE12=Leopard Skin Pillbox Hat
EXTD=Recorded in 1994, in Chatsworth, CA.\nTHE LINEUP, Top Jimm
EXTD=y-Vocals, Larry Clark- Lead Guitar, Darren Simonian-Rhythm
EXTD=Guitar, John Bazz-Bass, Joey Morales-Drums.  Produced by 
EXTD=John Doe
EXTT0=
EXTT1=
EXTT2=
EXTT3=
EXTT4=
EXTT5=
EXTT6=
EXTT7=
EXTT8=
EXTT9=
EXTT10=
EXTT11=
EXTT12=
PLAYORDER=
